<?xml version="1.0" encoding="iso-8859-1"?>
<!-- Generator: Adobe Illustrator 19.0.0, SVG Export Plug-In . SVG Version: 6.00 Build 0)  -->
<svg version="1.1" id="Capa_1" xmlns="http://www.w3.org/2000/svg" xmlns:xlink="http://www.w3.org/1999/xlink" x="0px" y="0px"
	 viewBox="0 0 512 512" style="enable-background:new 0 0 512 512;" xml:space="preserve">
<path style="fill:#FFBD86;" d="M450.4,123.6v256.5c0,9.901-1.8,19.501-5.7,28.801c-5.099,12.001-12.001,19.501-17.1,24.901
	c-5.7,6.299-7.2,8.099-7.2,13.499V512h-105l-135-212V63.6c0-18.6,15-33.6,33.6-33.6c18.9,0,33.4,15,33.4,33.6v-30
	C247.4,15,262.9,0,281.8,0c18.6,0,33.6,15,33.6,33.6v30c0-18.6,15-33.6,33.6-33.6c18.9,0,33.4,15,33.4,33.6v60
	c0-18.6,15.5-33.6,34.4-33.6C435.4,90,450.4,105,450.4,123.6z"/>
<path style="fill:#F6A96C;" d="M450.4,123.6v256.5c0,9.901-1.8,19.501-5.7,28.801c-5.099,12.001-12.001,19.501-17.1,24.901
	c-5.7,6.299-7.2,8.099-7.2,13.499V512h-105V63.6c0-18.6,15-33.6,33.6-33.6c18.9,0,33.4,15,33.4,33.6v60c0-18.6,15.5-33.6,34.4-33.6
	C435.4,90,450.4,105,450.4,123.6z"/>
<path style="fill:#FED2A4;" d="M315.4,375v137h-105v-68.301c0-15.298-5.7-29.7-16.199-41.1L61.6,266.4
	c11.192-11.178,25.88-17.701,42.601-17.701c41.606,0,73.197,34.248,76.199,36.301h46.5C275.8,285.901,315.4,326.1,315.4,375z"/>
<g>
</g>
<g>
</g>
<g>
</g>
<g>
</g>
<g>
</g>
<g>
</g>
<g>
</g>
<g>
</g>
<g>
</g>
<g>
</g>
<g>
</g>
<g>
</g>
<g>
</g>
<g>
</g>
<g>
</g>
</svg>
