<?xml version="1.0" encoding="iso-8859-1"?>
<!-- Generator: Adobe Illustrator 19.0.0, SVG Export Plug-In . SVG Version: 6.00 Build 0)  -->
<svg version="1.1" id="Capa_1" xmlns="http://www.w3.org/2000/svg" xmlns:xlink="http://www.w3.org/1999/xlink" x="0px" y="0px"
	 viewBox="0 0 512 512" style="enable-background:new 0 0 512 512;" xml:space="preserve">
<path style="fill:#F6A96C;" d="M406,150v69.6c0,25.499-6,51-17.401,73.801C382.899,306,376,313.5,376,329.099V512H241L136,150H406z"
	/>
<path style="fill:#EA9B58;" d="M406,150v69.6c0,25.499-6,51-17.401,73.801C382.899,306,376,313.5,376,329.099V512H271V150H406z"/>
<path style="fill:#FFBD86;" d="M237.25,0L237.25,0C218.61,0,203,15.11,203,33.75C203,15.11,188.39,0,169.75,0l0,0
	C151.11,0,136,15.11,136,33.75v112.5c0,18.64,15.11,33.75,33.75,33.75l0,0c18.64,0,33.25-15.11,33.25-33.75
	c0,18.64,15.61,33.75,34.25,33.75l0,0c18.64,0,33.75-15.11,33.75-33.75V33.75C271,15.11,255.89,0,237.25,0z"/>
<path style="fill:#F6A96C;" d="M372.25,30L372.25,30C353.61,30,338,45.11,338,63.75v-30C338,15.11,323.39,0,304.75,0l0,0
	C286.11,0,271,15.11,271,33.75v112.5c0,18.64,15.11,33.75,33.75,33.75l0,0c18.64,0,33.25-15.11,33.25-33.75
	c0,18.64,15.61,33.75,34.25,33.75l0,0c18.64,0,33.75-15.11,33.75-33.75v-82.5C406,45.11,390.89,30,372.25,30z"/>
<path style="fill:#FED2A4;" d="M271,90H151c-24.853,0-45,20.147-45,45c0,3.081,0,67.522,0,64.501C106,237.9,122.5,275.7,153.701,309
	C161.8,317.401,166,328.5,166,339.901V512h75V255c0-57.9-47.1-105-105-105h75C244.137,150,271,123.137,271,90z"/>
<g>
</g>
<g>
</g>
<g>
</g>
<g>
</g>
<g>
</g>
<g>
</g>
<g>
</g>
<g>
</g>
<g>
</g>
<g>
</g>
<g>
</g>
<g>
</g>
<g>
</g>
<g>
</g>
<g>
</g>
</svg>
