<?xml version="1.0" encoding="iso-8859-1"?>
<!-- Generator: Adobe Illustrator 19.0.0, SVG Export Plug-In . SVG Version: 6.00 Build 0)  -->
<svg version="1.1" id="Capa_1" xmlns="http://www.w3.org/2000/svg" xmlns:xlink="http://www.w3.org/1999/xlink" x="0px" y="0px"
	 viewBox="0 0 512 512" style="enable-background:new 0 0 512 512;" xml:space="preserve">
<g>
	<path style="fill:#FFBD86;" d="M286.053,33.648c0,1.503,0,3.306-0.301,4.808l-14.726,104.887l25.526,32.19l-39.052,63.982
		c-2.704,18.333-19.834,31.255-38.167,28.852c-18.635-2.706-31.557-19.836-28.852-38.169l28.25-201.058
		c2.704-18.333,19.834-31.255,38.169-28.852c5.108,0.602,10.217,2.706,14.124,5.71C280.343,12.008,286.053,22.227,286.053,33.648z"
		/>
	<path style="fill:#FFBD86;" d="M172.485,268.252L172.485,268.252c-18.491,2.599-35.588-10.284-38.187-28.775L106.066,38.589
		c-2.599-18.491,10.284-35.587,28.775-38.187l0,0c18.491-2.599,35.587,10.284,38.187,28.775l28.233,200.887
		C203.859,248.556,190.976,265.653,172.485,268.252z"/>
</g>
<path style="fill:#F6A96C;" d="M271.027,128.315v51.091H256L135.786,209.46l105.187,302.539h135.241v-93.067
	c0-15.627,6.911-23.14,12.621-35.762c11.42-22.841,17.432-48.387,17.432-73.933V209.46L271.027,128.315z"/>
<path style="fill:#EA9B58;" d="M406.268,209.461v99.778c0,25.544-6.011,51.091-17.432,73.933
	c-5.71,12.621-12.621,20.135-12.621,35.762V512H271.027V128.316L406.268,209.461z"/>
<path style="fill:#FED2A4;" d="M271.027,179.407H150.813c-24.897,0-45.08,20.183-45.08,45.08c0,3.087,0,67.642,0,64.616
	c0,38.467,16.529,76.335,47.786,109.694c8.113,8.416,12.321,19.536,12.321,30.956V512h75.134V344.702
	c0-58.003-47.184-105.187-105.187-105.187h75.134C244.115,239.515,271.027,212.603,271.027,179.407z"/>
<path style="fill:#F6A96C;" d="M372.457,89.247L372.457,89.247c-18.673,0-34.311,15.137-34.311,33.81
	c0-18.673-14.636-33.81-33.309-33.81l0,0c-18.673,0-33.81,15.137-33.81,33.81v112.701c0,18.673,15.137,33.81,33.81,33.81l0,0
	c18.673,0,33.309-15.137,33.309-33.81c0,18.673,15.638,33.81,34.311,33.81l0,0c18.673,0,33.81-15.137,33.81-33.81V123.057
	C406.268,104.384,391.131,89.247,372.457,89.247z"/>
<g>
</g>
<g>
</g>
<g>
</g>
<g>
</g>
<g>
</g>
<g>
</g>
<g>
</g>
<g>
</g>
<g>
</g>
<g>
</g>
<g>
</g>
<g>
</g>
<g>
</g>
<g>
</g>
<g>
</g>
</svg>
